<?xml version="1.0" encoding="UTF-8"?>
<svg fill="#000" version="1.1" viewBox="0 0 1024 1024" xmlns="http://www.w3.org/2000/svg">
<rect width="1024" height="1024" fill="#fff"/>
<rect x="274" y="50" width="28" height="28"/>
<rect x="414" y="50" width="28" height="28"/>
<rect x="442" y="50" width="28" height="28"/>
<rect x="470" y="50" width="28" height="28"/>
<rect x="554" y="50" width="28" height="28"/>
<rect x="582" y="50" width="28" height="28"/>
<rect x="638" y="50" width="28" height="28"/>
<rect x="666" y="50" width="28" height="28"/>
<rect x="694" y="50" width="28" height="28"/>
<rect x="722" y="50" width="28" height="28"/>
<rect x="274" y="78" width="28" height="28"/>
<rect x="302" y="78" width="28" height="28"/>
<rect x="330" y="78" width="28" height="28"/>
<rect x="358" y="78" width="28" height="28"/>
<rect x="414" y="78" width="28" height="28"/>
<rect x="554" y="78" width="28" height="28"/>
<rect x="582" y="78" width="28" height="28"/>
<rect x="638" y="78" width="28" height="28"/>
<rect x="694" y="78" width="28" height="28"/>
<rect x="302" y="106" width="28" height="28"/>
<rect x="330" y="106" width="28" height="28"/>
<rect x="358" y="106" width="28" height="28"/>
<rect x="386" y="106" width="28" height="28"/>
<rect x="414" y="106" width="28" height="28"/>
<rect x="442" y="106" width="28" height="28"/>
<rect x="470" y="106" width="28" height="28"/>
<rect x="722" y="106" width="28" height="28"/>
<rect x="274" y="134" width="28" height="28"/>
<rect x="302" y="134" width="28" height="28"/>
<rect x="358" y="134" width="28" height="28"/>
<rect x="386" y="134" width="28" height="28"/>
<rect x="470" y="134" width="28" height="28"/>
<rect x="526" y="134" width="28" height="28"/>
<rect x="554" y="134" width="28" height="28"/>
<rect x="610" y="134" width="28" height="28"/>
<rect x="666" y="134" width="28" height="28"/>
<rect x="302" y="162" width="28" height="28"/>
<rect x="386" y="162" width="28" height="28"/>
<rect x="470" y="162" width="28" height="28"/>
<rect x="498" y="162" width="28" height="28"/>
<rect x="526" y="162" width="28" height="28"/>
<rect x="582" y="162" width="28" height="28"/>
<rect x="722" y="162" width="28" height="28"/>
<rect x="302" y="190" width="28" height="28"/>
<rect x="330" y="190" width="28" height="28"/>
<rect x="358" y="190" width="28" height="28"/>
<rect x="442" y="190" width="28" height="28"/>
<rect x="526" y="190" width="28" height="28"/>
<rect x="554" y="190" width="28" height="28"/>
<rect x="638" y="190" width="28" height="28"/>
<rect x="666" y="190" width="28" height="28"/>
<rect x="722" y="190" width="28" height="28"/>
<rect x="330" y="246" width="28" height="28"/>
<rect x="358" y="246" width="28" height="28"/>
<rect x="386" y="246" width="28" height="28"/>
<rect x="414" y="246" width="28" height="28"/>
<rect x="442" y="246" width="28" height="28"/>
<rect x="526" y="246" width="28" height="28"/>
<rect x="638" y="246" width="28" height="28"/>
<rect x="722" y="246" width="28" height="28"/>
<rect x="134" y="274" width="28" height="28"/>
<rect x="330" y="274" width="28" height="28"/>
<rect x="386" y="274" width="28" height="28"/>
<rect x="470" y="274" width="28" height="28"/>
<rect x="498" y="274" width="28" height="28"/>
<rect x="610" y="274" width="28" height="28"/>
<rect x="638" y="274" width="28" height="28"/>
<rect x="666" y="274" width="28" height="28"/>
<rect x="722" y="274" width="28" height="28"/>
<rect x="806" y="274" width="28" height="28"/>
<rect x="834" y="274" width="28" height="28"/>
<rect x="862" y="274" width="28" height="28"/>
<rect x="918" y="274" width="28" height="28"/>
<rect x="946" y="274" width="28" height="28"/>
<rect x="50" y="302" width="28" height="28"/>
<rect x="78" y="302" width="28" height="28"/>
<rect x="190" y="302" width="28" height="28"/>
<rect x="274" y="302" width="28" height="28"/>
<rect x="302" y="302" width="28" height="28"/>
<rect x="414" y="302" width="28" height="28"/>
<rect x="470" y="302" width="28" height="28"/>
<rect x="554" y="302" width="28" height="28"/>
<rect x="722" y="302" width="28" height="28"/>
<rect x="778" y="302" width="28" height="28"/>
<rect x="862" y="302" width="28" height="28"/>
<rect x="918" y="302" width="28" height="28"/>
<rect x="946" y="302" width="28" height="28"/>
<rect x="50" y="330" width="28" height="28"/>
<rect x="106" y="330" width="28" height="28"/>
<rect x="190" y="330" width="28" height="28"/>
<rect x="302" y="330" width="28" height="28"/>
<rect x="330" y="330" width="28" height="28"/>
<rect x="386" y="330" width="28" height="28"/>
<rect x="470" y="330" width="28" height="28"/>
<rect x="498" y="330" width="28" height="28"/>
<rect x="554" y="330" width="28" height="28"/>
<rect x="610" y="330" width="28" height="28"/>
<rect x="638" y="330" width="28" height="28"/>
<rect x="666" y="330" width="28" height="28"/>
<rect x="750" y="330" width="28" height="28"/>
<rect x="778" y="330" width="28" height="28"/>
<rect x="946" y="330" width="28" height="28"/>
<rect x="50" y="358" width="28" height="28"/>
<rect x="78" y="358" width="28" height="28"/>
<rect x="134" y="358" width="28" height="28"/>
<rect x="162" y="358" width="28" height="28"/>
<rect x="190" y="358" width="28" height="28"/>
<rect x="246" y="358" width="28" height="28"/>
<rect x="274" y="358" width="28" height="28"/>
<rect x="330" y="358" width="28" height="28"/>
<rect x="358" y="358" width="28" height="28"/>
<rect x="386" y="358" width="28" height="28"/>
<rect x="414" y="358" width="28" height="28"/>
<rect x="582" y="358" width="28" height="28"/>
<rect x="722" y="358" width="28" height="28"/>
<rect x="778" y="358" width="28" height="28"/>
<rect x="862" y="358" width="28" height="28"/>
<rect x="918" y="358" width="28" height="28"/>
<rect x="50" y="386" width="28" height="28"/>
<rect x="106" y="386" width="28" height="28"/>
<rect x="134" y="386" width="28" height="28"/>
<rect x="162" y="386" width="28" height="28"/>
<rect x="190" y="386" width="28" height="28"/>
<rect x="274" y="386" width="28" height="28"/>
<rect x="302" y="386" width="28" height="28"/>
<rect x="330" y="386" width="28" height="28"/>
<rect x="358" y="386" width="28" height="28"/>
<rect x="442" y="386" width="28" height="28"/>
<rect x="470" y="386" width="28" height="28"/>
<rect x="498" y="386" width="28" height="28"/>
<rect x="526" y="386" width="28" height="28"/>
<rect x="554" y="386" width="28" height="28"/>
<rect x="694" y="386" width="28" height="28"/>
<rect x="722" y="386" width="28" height="28"/>
<rect x="750" y="386" width="28" height="28"/>
<rect x="778" y="386" width="28" height="28"/>
<rect x="862" y="386" width="28" height="28"/>
<rect x="50" y="414" width="28" height="28"/>
<rect x="134" y="414" width="28" height="28"/>
<rect x="162" y="414" width="28" height="28"/>
<rect x="246" y="414" width="28" height="28"/>
<rect x="358" y="414" width="28" height="28"/>
<rect x="386" y="414" width="28" height="28"/>
<rect x="442" y="414" width="28" height="28"/>
<rect x="470" y="414" width="28" height="28"/>
<rect x="498" y="414" width="28" height="28"/>
<rect x="582" y="414" width="28" height="28"/>
<rect x="666" y="414" width="28" height="28"/>
<rect x="722" y="414" width="28" height="28"/>
<rect x="778" y="414" width="28" height="28"/>
<rect x="834" y="414" width="28" height="28"/>
<rect x="890" y="414" width="28" height="28"/>
<rect x="946" y="414" width="28" height="28"/>
<rect x="50" y="442" width="28" height="28"/>
<rect x="106" y="442" width="28" height="28"/>
<rect x="134" y="442" width="28" height="28"/>
<rect x="162" y="442" width="28" height="28"/>
<rect x="302" y="442" width="28" height="28"/>
<rect x="330" y="442" width="28" height="28"/>
<rect x="358" y="442" width="28" height="28"/>
<rect x="442" y="442" width="28" height="28"/>
<rect x="526" y="442" width="28" height="28"/>
<rect x="638" y="442" width="28" height="28"/>
<rect x="694" y="442" width="28" height="28"/>
<rect x="722" y="442" width="28" height="28"/>
<rect x="750" y="442" width="28" height="28"/>
<rect x="834" y="442" width="28" height="28"/>
<rect x="862" y="442" width="28" height="28"/>
<rect x="890" y="442" width="28" height="28"/>
<rect x="918" y="442" width="28" height="28"/>
<rect x="50" y="470" width="28" height="28"/>
<rect x="78" y="470" width="28" height="28"/>
<rect x="274" y="470" width="28" height="28"/>
<rect x="330" y="470" width="28" height="28"/>
<rect x="358" y="470" width="28" height="28"/>
<rect x="442" y="470" width="28" height="28"/>
<rect x="470" y="470" width="28" height="28"/>
<rect x="498" y="470" width="28" height="28"/>
<rect x="526" y="470" width="28" height="28"/>
<rect x="638" y="470" width="28" height="28"/>
<rect x="666" y="470" width="28" height="28"/>
<rect x="722" y="470" width="28" height="28"/>
<rect x="750" y="470" width="28" height="28"/>
<rect x="918" y="470" width="28" height="28"/>
<rect x="106" y="498" width="28" height="28"/>
<rect x="190" y="498" width="28" height="28"/>
<rect x="274" y="498" width="28" height="28"/>
<rect x="302" y="498" width="28" height="28"/>
<rect x="414" y="498" width="28" height="28"/>
<rect x="582" y="498" width="28" height="28"/>
<rect x="638" y="498" width="28" height="28"/>
<rect x="694" y="498" width="28" height="28"/>
<rect x="778" y="498" width="28" height="28"/>
<rect x="806" y="498" width="28" height="28"/>
<rect x="834" y="498" width="28" height="28"/>
<rect x="918" y="498" width="28" height="28"/>
<rect x="946" y="498" width="28" height="28"/>
<rect x="78" y="526" width="28" height="28"/>
<rect x="106" y="526" width="28" height="28"/>
<rect x="134" y="526" width="28" height="28"/>
<rect x="162" y="526" width="28" height="28"/>
<rect x="190" y="526" width="28" height="28"/>
<rect x="246" y="526" width="28" height="28"/>
<rect x="274" y="526" width="28" height="28"/>
<rect x="330" y="526" width="28" height="28"/>
<rect x="358" y="526" width="28" height="28"/>
<rect x="386" y="526" width="28" height="28"/>
<rect x="442" y="526" width="28" height="28"/>
<rect x="470" y="526" width="28" height="28"/>
<rect x="526" y="526" width="28" height="28"/>
<rect x="554" y="526" width="28" height="28"/>
<rect x="582" y="526" width="28" height="28"/>
<rect x="610" y="526" width="28" height="28"/>
<rect x="638" y="526" width="28" height="28"/>
<rect x="694" y="526" width="28" height="28"/>
<rect x="750" y="526" width="28" height="28"/>
<rect x="890" y="526" width="28" height="28"/>
<rect x="918" y="526" width="28" height="28"/>
<rect x="106" y="554" width="28" height="28"/>
<rect x="246" y="554" width="28" height="28"/>
<rect x="274" y="554" width="28" height="28"/>
<rect x="330" y="554" width="28" height="28"/>
<rect x="386" y="554" width="28" height="28"/>
<rect x="442" y="554" width="28" height="28"/>
<rect x="470" y="554" width="28" height="28"/>
<rect x="610" y="554" width="28" height="28"/>
<rect x="750" y="554" width="28" height="28"/>
<rect x="778" y="554" width="28" height="28"/>
<rect x="890" y="554" width="28" height="28"/>
<rect x="918" y="554" width="28" height="28"/>
<rect x="946" y="554" width="28" height="28"/>
<rect x="78" y="582" width="28" height="28"/>
<rect x="134" y="582" width="28" height="28"/>
<rect x="162" y="582" width="28" height="28"/>
<rect x="190" y="582" width="28" height="28"/>
<rect x="274" y="582" width="28" height="28"/>
<rect x="302" y="582" width="28" height="28"/>
<rect x="358" y="582" width="28" height="28"/>
<rect x="414" y="582" width="28" height="28"/>
<rect x="498" y="582" width="28" height="28"/>
<rect x="526" y="582" width="28" height="28"/>
<rect x="582" y="582" width="28" height="28"/>
<rect x="638" y="582" width="28" height="28"/>
<rect x="750" y="582" width="28" height="28"/>
<rect x="918" y="582" width="28" height="28"/>
<rect x="946" y="582" width="28" height="28"/>
<rect x="50" y="610" width="28" height="28"/>
<rect x="78" y="610" width="28" height="28"/>
<rect x="106" y="610" width="28" height="28"/>
<rect x="246" y="610" width="28" height="28"/>
<rect x="274" y="610" width="28" height="28"/>
<rect x="330" y="610" width="28" height="28"/>
<rect x="358" y="610" width="28" height="28"/>
<rect x="386" y="610" width="28" height="28"/>
<rect x="470" y="610" width="28" height="28"/>
<rect x="526" y="610" width="28" height="28"/>
<rect x="554" y="610" width="28" height="28"/>
<rect x="610" y="610" width="28" height="28"/>
<rect x="638" y="610" width="28" height="28"/>
<rect x="666" y="610" width="28" height="28"/>
<rect x="694" y="610" width="28" height="28"/>
<rect x="722" y="610" width="28" height="28"/>
<rect x="750" y="610" width="28" height="28"/>
<rect x="134" y="638" width="28" height="28"/>
<rect x="162" y="638" width="28" height="28"/>
<rect x="302" y="638" width="28" height="28"/>
<rect x="330" y="638" width="28" height="28"/>
<rect x="386" y="638" width="28" height="28"/>
<rect x="470" y="638" width="28" height="28"/>
<rect x="498" y="638" width="28" height="28"/>
<rect x="526" y="638" width="28" height="28"/>
<rect x="582" y="638" width="28" height="28"/>
<rect x="610" y="638" width="28" height="28"/>
<rect x="778" y="638" width="28" height="28"/>
<rect x="862" y="638" width="28" height="28"/>
<rect x="890" y="638" width="28" height="28"/>
<rect x="946" y="638" width="28" height="28"/>
<rect x="50" y="666" width="28" height="28"/>
<rect x="78" y="666" width="28" height="28"/>
<rect x="162" y="666" width="28" height="28"/>
<rect x="190" y="666" width="28" height="28"/>
<rect x="526" y="666" width="28" height="28"/>
<rect x="582" y="666" width="28" height="28"/>
<rect x="666" y="666" width="28" height="28"/>
<rect x="750" y="666" width="28" height="28"/>
<rect x="778" y="666" width="28" height="28"/>
<rect x="834" y="666" width="28" height="28"/>
<rect x="862" y="666" width="28" height="28"/>
<rect x="890" y="666" width="28" height="28"/>
<rect x="946" y="666" width="28" height="28"/>
<rect x="78" y="694" width="28" height="28"/>
<rect x="134" y="694" width="28" height="28"/>
<rect x="190" y="694" width="28" height="28"/>
<rect x="358" y="694" width="28" height="28"/>
<rect x="442" y="694" width="28" height="28"/>
<rect x="498" y="694" width="28" height="28"/>
<rect x="526" y="694" width="28" height="28"/>
<rect x="582" y="694" width="28" height="28"/>
<rect x="610" y="694" width="28" height="28"/>
<rect x="638" y="694" width="28" height="28"/>
<rect x="666" y="694" width="28" height="28"/>
<rect x="694" y="694" width="28" height="28"/>
<rect x="750" y="694" width="28" height="28"/>
<rect x="778" y="694" width="28" height="28"/>
<rect x="806" y="694" width="28" height="28"/>
<rect x="862" y="694" width="28" height="28"/>
<rect x="50" y="722" width="28" height="28"/>
<rect x="162" y="722" width="28" height="28"/>
<rect x="190" y="722" width="28" height="28"/>
<rect x="246" y="722" width="28" height="28"/>
<rect x="274" y="722" width="28" height="28"/>
<rect x="302" y="722" width="28" height="28"/>
<rect x="386" y="722" width="28" height="28"/>
<rect x="414" y="722" width="28" height="28"/>
<rect x="470" y="722" width="28" height="28"/>
<rect x="582" y="722" width="28" height="28"/>
<rect x="610" y="722" width="28" height="28"/>
<rect x="638" y="722" width="28" height="28"/>
<rect x="862" y="722" width="28" height="28"/>
<rect x="918" y="722" width="28" height="28"/>
<rect x="274" y="750" width="28" height="28"/>
<rect x="330" y="750" width="28" height="28"/>
<rect x="358" y="750" width="28" height="28"/>
<rect x="414" y="750" width="28" height="28"/>
<rect x="470" y="750" width="28" height="28"/>
<rect x="498" y="750" width="28" height="28"/>
<rect x="582" y="750" width="28" height="28"/>
<rect x="638" y="750" width="28" height="28"/>
<rect x="694" y="750" width="28" height="28"/>
<rect x="918" y="750" width="28" height="28"/>
<rect x="946" y="750" width="28" height="28"/>
<rect x="386" y="778" width="28" height="28"/>
<rect x="442" y="778" width="28" height="28"/>
<rect x="526" y="778" width="28" height="28"/>
<rect x="554" y="778" width="28" height="28"/>
<rect x="666" y="778" width="28" height="28"/>
<rect x="890" y="778" width="28" height="28"/>
<rect x="918" y="778" width="28" height="28"/>
<rect x="414" y="806" width="28" height="28"/>
<rect x="470" y="806" width="28" height="28"/>
<rect x="554" y="806" width="28" height="28"/>
<rect x="582" y="806" width="28" height="28"/>
<rect x="610" y="806" width="28" height="28"/>
<rect x="638" y="806" width="28" height="28"/>
<rect x="666" y="806" width="28" height="28"/>
<rect x="946" y="806" width="28" height="28"/>
<rect x="302" y="834" width="28" height="28"/>
<rect x="414" y="834" width="28" height="28"/>
<rect x="442" y="834" width="28" height="28"/>
<rect x="498" y="834" width="28" height="28"/>
<rect x="526" y="834" width="28" height="28"/>
<rect x="582" y="834" width="28" height="28"/>
<rect x="274" y="862" width="28" height="28"/>
<rect x="330" y="862" width="28" height="28"/>
<rect x="358" y="862" width="28" height="28"/>
<rect x="386" y="862" width="28" height="28"/>
<rect x="414" y="862" width="28" height="28"/>
<rect x="470" y="862" width="28" height="28"/>
<rect x="498" y="862" width="28" height="28"/>
<rect x="526" y="862" width="28" height="28"/>
<rect x="554" y="862" width="28" height="28"/>
<rect x="610" y="862" width="28" height="28"/>
<rect x="638" y="862" width="28" height="28"/>
<rect x="666" y="862" width="28" height="28"/>
<rect x="694" y="862" width="28" height="28"/>
<rect x="778" y="862" width="28" height="28"/>
<rect x="834" y="862" width="28" height="28"/>
<rect x="890" y="862" width="28" height="28"/>
<rect x="918" y="862" width="28" height="28"/>
<rect x="414" y="890" width="28" height="28"/>
<rect x="750" y="890" width="28" height="28"/>
<rect x="806" y="890" width="28" height="28"/>
<rect x="834" y="890" width="28" height="28"/>
<rect x="862" y="890" width="28" height="28"/>
<rect x="890" y="890" width="28" height="28"/>
<rect x="946" y="890" width="28" height="28"/>
<rect x="330" y="918" width="28" height="28"/>
<rect x="358" y="918" width="28" height="28"/>
<rect x="470" y="918" width="28" height="28"/>
<rect x="498" y="918" width="28" height="28"/>
<rect x="554" y="918" width="28" height="28"/>
<rect x="638" y="918" width="28" height="28"/>
<rect x="694" y="918" width="28" height="28"/>
<rect x="722" y="918" width="28" height="28"/>
<rect x="778" y="918" width="28" height="28"/>
<rect x="806" y="918" width="28" height="28"/>
<rect x="834" y="918" width="28" height="28"/>
<rect x="414" y="946" width="28" height="28"/>
<rect x="470" y="946" width="28" height="28"/>
<rect x="582" y="946" width="28" height="28"/>
<rect x="666" y="946" width="28" height="28"/>
<rect x="694" y="946" width="28" height="28"/>
<rect x="722" y="946" width="28" height="28"/>
<rect x="750" y="946" width="28" height="28"/>
<rect x="778" y="946" width="28" height="28"/>
<rect x="806" y="946" width="28" height="28"/>
<rect x="834" y="946" width="28" height="28"/>
<rect x="862" y="946" width="28" height="28"/>
<rect x="918" y="946" width="28" height="28"/>
<svg x="50" y="50" width="196" height="196" version="1.1" viewBox="0 0 196 196" xmlns="http://www.w3.org/2000/svg" xmlns:svgjs="http://svgjs.com/svgjs" xmlns:xlink="http://www.w3.org/1999/xlink">
<path d="m0 0h196v196h-196v-196zm28 28v140h140v-140h-140z" stroke-width="10"/>
</svg>
<svg x="778" y="50" width="196" height="196" version="1.1" viewBox="0 0 196 196" xmlns="http://www.w3.org/2000/svg" xmlns:svgjs="http://svgjs.com/svgjs" xmlns:xlink="http://www.w3.org/1999/xlink">
<path d="m0 0h196v196h-196v-196zm28 28v140h140v-140h-140z" stroke-width="10"/>
</svg>
<svg x="50" y="778" width="196" height="196" version="1.1" viewBox="0 0 196 196" xmlns="http://www.w3.org/2000/svg" xmlns:svgjs="http://svgjs.com/svgjs" xmlns:xlink="http://www.w3.org/1999/xlink">
<path d="m0 0h196v196h-196v-196zm28 28v140h140v-140h-140z" stroke-width="10"/>
</svg>
<svg x="106" y="106" width="84" height="84" version="1.1" xmlns="http://www.w3.org/2000/svg" xmlns:svgjs="http://svgjs.com/svgjs" xmlns:xlink="http://www.w3.org/1999/xlink">
<rect width="84" height="84"/>
</svg>
<svg x="834" y="106" width="84" height="84" version="1.1" xmlns="http://www.w3.org/2000/svg" xmlns:svgjs="http://svgjs.com/svgjs" xmlns:xlink="http://www.w3.org/1999/xlink">
<rect width="84" height="84"/>
</svg>
<svg x="106" y="834" width="84" height="84" version="1.1" xmlns="http://www.w3.org/2000/svg" xmlns:svgjs="http://svgjs.com/svgjs" xmlns:xlink="http://www.w3.org/1999/xlink">
<rect width="84" height="84"/>
</svg>
<rect x="274" y="218" width="28" height="28"/>
<rect x="218" y="274" width="28" height="28"/>
<rect x="330" y="218" width="28" height="28"/>
<rect x="218" y="330" width="28" height="28"/>
<rect x="386" y="218" width="28" height="28"/>
<rect x="218" y="386" width="28" height="28"/>
<rect x="442" y="218" width="28" height="28"/>
<rect x="218" y="442" width="28" height="28"/>
<rect x="498" y="218" width="28" height="28"/>
<rect x="218" y="498" width="28" height="28"/>
<rect x="554" y="218" width="28" height="28"/>
<rect x="218" y="554" width="28" height="28"/>
<rect x="610" y="218" width="28" height="28"/>
<rect x="218" y="610" width="28" height="28"/>
<rect x="666" y="218" width="28" height="28"/>
<rect x="218" y="666" width="28" height="28"/>
<rect x="722" y="218" width="28" height="28"/>
<rect x="218" y="722" width="28" height="28"/>
<rect x="722" y="722" width="28" height="28"/>
<rect x="722" y="750" width="28" height="28"/>
<rect x="722" y="778" width="28" height="28"/>
<rect x="722" y="806" width="28" height="28"/>
<rect x="834" y="750" width="28" height="28"/>
<rect x="834" y="778" width="28" height="28"/>
<rect x="834" y="806" width="28" height="28"/>
<rect x="834" y="834" width="28" height="28"/>
<rect x="750" y="722" width="28" height="28"/>
<rect x="778" y="722" width="28" height="28"/>
<rect x="806" y="722" width="28" height="28"/>
<rect x="834" y="722" width="28" height="28"/>
<rect x="722" y="834" width="28" height="28"/>
<rect x="750" y="834" width="28" height="28"/>
<rect x="778" y="834" width="28" height="28"/>
<rect x="806" y="834" width="28" height="28"/>
<rect x="778" y="778" width="28" height="28"/>
</svg>
